<svg width="17" height="20" viewBox="0 0 17 20" fill="none" xmlns="http://www.w3.org/2000/svg">
<path d="M1.02948 12.7806L0.0251336 17.6819C-0.00951311 17.861 -0.0083254 18.0467 0.0286099 18.2253C0.0655451 18.4038 0.137295 18.5708 0.238618 18.714C0.339941 18.8573 0.468277 18.9731 0.614252 19.053C0.760226 19.133 0.920151 19.175 1.08234 19.1761C1.15792 19.1848 1.23407 19.1848 1.30964 19.1761L5.67064 18.0405L14.0437 8.6086L9.37087 3.33679L1.02948 12.7806Z" fill="#7A7A7A"/>
<path d="M16.6762 3.88667L13.5574 0.360173C13.3523 0.129495 13.0749 0 12.7856 0C12.4964 0 12.2189 0.129495 12.0139 0.360173L10.28 2.32066L14.9476 7.59845L16.6814 5.63796C16.7829 5.52265 16.8633 5.38585 16.9179 5.23538C16.9726 5.08491 17.0005 4.92374 17 4.76107C16.9995 4.59841 16.9706 4.43745 16.9151 4.28741C16.8595 4.13737 16.7783 4.00119 16.6762 3.88667Z" fill="#7A7A7A"/>
</svg>
