<svg width="1200" height="1200" viewBox="0 0 1200 1200" fill="none" xmlns="http://www.w3.org/2000/svg">
<path d="M600 0C268.629 0 0 268.629 0 600C0 931.371 268.629 1200 600 1200C931.371 1200 1200 931.371 1200 600C1200 268.629 931.371 0 600 0ZM579.639 221.777H620.362V341.821H579.639V221.777ZM413.086 257.812L481.934 356.103L448.536 379.541L379.688 281.25L413.086 257.812ZM786.914 257.812L820.312 281.25L751.464 379.541L718.066 356.103L786.914 257.812ZM600 374.634C699.754 374.634 780.615 435.183 780.615 509.912L678.003 820.679H521.997L419.385 509.912C419.385 435.182 500.252 374.634 600 374.634ZM275.61 410.669L388.403 451.758L374.414 490.064L261.694 448.975L275.61 410.669ZM924.39 410.669L938.306 448.975L825.513 490.064L811.597 451.758L924.39 410.669ZM382.983 585.938L393.53 625.342L277.588 656.397L267.041 616.993L382.983 585.938ZM817.017 585.938L932.959 616.993L922.412 656.397L806.47 625.342L817.017 585.938ZM519.727 843.384H680.274V897.363H519.727V843.384ZM519.727 924.243H680.274V978.222H519.727V924.243Z" fill="#616161"/>
</svg>
