<svg width="20" height="19" viewBox="0 0 20 19" fill="none" xmlns="http://www.w3.org/2000/svg">
<path d="M19.706 3.292L16.707 0.293001C16.6143 0.199958 16.5041 0.126171 16.3828 0.0758854C16.2614 0.0256001 16.1313 -0.000189449 16 1.04767e-06H4C3.86867 -0.000134625 3.7386 0.02568 3.61727 0.0759622C3.49594 0.126244 3.38574 0.200003 3.293 0.293001L0.294001 3.292C0.200658 3.38474 0.126617 3.49506 0.0761548 3.61658C0.0256926 3.7381 -0.000190451 3.86842 1.05497e-06 4V17C1.05497e-06 18.103 0.897001 19 2 19H18C19.103 19 20 18.103 20 17V4C20.0003 3.8684 19.9745 3.73805 19.924 3.61652C19.8735 3.49498 19.7994 3.38468 19.706 3.292ZM4.414 2H15.586L16.586 3H3.414L4.414 2ZM10 16L5 11H8V8H12V11H15L10 16Z" fill="white"/>
</svg>
