<svg width="1200" height="1200" viewBox="0 0 1200 1200" fill="none" xmlns="http://www.w3.org/2000/svg">
<path d="M600 0C268.635 0 0 268.635 0 600C0 931.365 268.635 1200 600 1200C931.365 1200 1200 931.365 1200 600C1200 268.635 931.365 0 600 0ZM263.688 263.688H936.314V382.75H863.095V448.25H936.314V567.25H863.095V632.75H936.314V751.75H863.095V817.25H936.314V936.344H263.688V263.688ZM563.375 381.156C509.683 381.156 466.187 424.714 466.187 478.406C466.187 516.457 488.029 549.377 519.875 565.344L395.437 639.844H393.906V744.938H732.844V639.844H731.313L606.875 565.344C638.721 549.377 660.563 516.457 660.563 478.406C660.562 424.714 617.067 381.156 563.375 381.156Z" fill="#616161"/>
</svg>
