<svg width="1200" height="1200" viewBox="0 0 1200 1200" fill="none" xmlns="http://www.w3.org/2000/svg">
<path d="M600 0C268.629 0 0 268.629 0 600C0 931.371 268.629 1200 600 1200C931.371 1200 1200 931.371 1200 600C1200 268.629 931.371 0 600 0ZM297.583 253.491L404.37 287.036C418.507 291.679 427.923 304.807 429.565 318.237L435.571 377.049L919.116 431.028C939.879 435.05 954.469 453.797 951.562 473.069L921.533 642.257C917.711 659.954 903.054 672.085 886.743 672.286H457.178L448.755 720.26H856.714C878.046 721.011 893.671 737.255 893.921 756.222C893.036 777.86 875.596 792.023 856.714 792.257H405.542C382.786 790.375 366.08 772.342 369.58 750.289L388.769 644.674L358.74 349.438L275.976 323.072C266.376 319.872 259.17 313.853 254.37 305.053C245.288 286.021 253.771 264.949 269.971 255.834C279.217 251.028 288.247 250.429 297.583 253.491ZM460.181 812.988C491.247 812.988 516.431 838.172 516.431 869.238C516.431 900.303 491.247 925.488 460.181 925.488C429.117 925.488 403.931 900.303 403.931 869.238C403.931 838.172 429.115 812.988 460.181 812.988ZM790.356 812.988C821.421 812.988 846.606 838.172 846.606 869.238C846.606 900.303 821.421 925.488 790.356 925.488C759.291 925.488 734.106 900.303 734.106 869.238C734.106 838.172 759.291 812.988 790.356 812.988Z" fill="#616161"/>
</svg>
